<svg xmlns="http://www.w3.org/2000/svg" width="512" height="512" viewBox="0 0 512 512">
<defs>
  <linearGradient id="m" x1="0" x2="1" y1="0" y2="1">
    <stop offset="0" stop-color="#a7f3d0"/>
    <stop offset="1" stop-color="#10b981"/>
  </linearGradient>
  <filter id="sh" x="-25%" y="-25%" width="150%" height="150%">
    <feDropShadow dx="0" dy="16" stdDeviation="14" flood-color="#000" flood-opacity="0.35"/>
  </filter>
</defs>
<circle cx="256" cy="256" r="200" fill="#0b1220"/>
<path d="M256 84c84 0 152 68 152 152 0 44-18 84-48 112" fill="none" stroke="#e5e7eb" stroke-width="14" stroke-linecap="round" opacity="0.6"/>
<path d="M360 348c-10 52-58 92-114 92-64 0-116-52-116-116" fill="none" stroke="#e5e7eb" stroke-width="14" stroke-linecap="round" opacity="0.6"/>
<path d="M194 170c26-40 82-50 128-18 38 26 52 76 34 118-18 44-72 70-124 56" fill="url(#m)" filter="url(#sh)"/>
<circle cx="292" cy="214" r="10" fill="#052e2b"/>
<path d="M214 226c-8 16-6 34 10 46" fill="none" stroke="#052e2b" stroke-width="10" stroke-linecap="round"/>
<path d="M314 286c36 8 66 36 70 72 4 42-26 78-68 82-34 4-66-14-78-44" fill="none" stroke="#e5e7eb" stroke-width="14" stroke-linecap="round"/>
<path d="M326 300l16 22" fill="none" stroke="#e5e7eb" stroke-width="14" stroke-linecap="round"/>
</svg>