<svg xmlns="http://www.w3.org/2000/svg" width="512" height="512" viewBox="0 0 512 512">
<defs>
  <linearGradient id="p" x1="0" x2="1" y1="0" y2="1">
    <stop offset="0" stop-color="#dbeafe"/>
    <stop offset="1" stop-color="#60a5fa"/>
  </linearGradient>
  <filter id="sh" x="-25%" y="-25%" width="150%" height="150%">
    <feDropShadow dx="0" dy="16" stdDeviation="14" flood-color="#000" flood-opacity="0.35"/>
  </filter>
</defs>
<path d="M156 72h148l88 88v280c0 22-18 40-40 40H156c-22 0-40-18-40-40V112c0-22 18-40 40-40z" fill="url(#p)" filter="url(#sh)"/>
<path d="M304 72v88h88" fill="none" stroke="#1d4ed8" stroke-width="14" stroke-linejoin="round" opacity="0.8"/>
<rect x="170" y="220" width="240" height="20" rx="10" fill="#1d4ed8" opacity="0.65"/>
<rect x="170" y="260" width="210" height="20" rx="10" fill="#1d4ed8" opacity="0.55"/>
<rect x="170" y="300" width="180" height="20" rx="10" fill="#1d4ed8" opacity="0.45"/>
<circle cx="198" cy="380" r="20" fill="#111827"/>
<circle cx="314" cy="380" r="20" fill="#111827"/>
<path d="M224 416c10 12 26 20 42 20s32-8 42-20" fill="none" stroke="#111827" stroke-width="10" stroke-linecap="round"/>
</svg>